<?xml version="1.0" standalone="no"?>
<!DOCTYPE svg PUBLIC "-//W3C//DTD SVG 20010904//EN"
 "http://www.w3.org/TR/2001/REC-SVG-20010904/DTD/svg10.dtd">
<svg version="1.0" xmlns="http://www.w3.org/2000/svg"
 width="1022.000000pt" height="1022.000000pt" viewBox="0 0 1022.000000 1022.000000"
 preserveAspectRatio="xMidYMid meet">
<metadata>
Created by potrace 1.14, written by Peter Selinger 2001-2017
</metadata>
<g transform="translate(0.000000,1022.000000) scale(0.100000,-0.100000)"
fill="#000000" stroke="none">
<path d="M0 5110 l0 -5110 5110 0 5110 0 0 5110 0 5110 -5110 0 -5110 0 0
-5110z m5575 4790 c3 -5 35 -10 70 -10 35 0 76 -5 92 -11 15 -7 44 -13 63 -14
98 -8 463 -93 670 -158 327 -102 762 -295 1016 -452 276 -171 437 -287 698
-504 248 -206 595 -591 790 -876 196 -285 411 -683 526 -969 87 -218 191 -559
230 -751 7 -33 17 -72 22 -87 5 -15 7 -32 3 -37 -3 -6 1 -25 9 -43 8 -18 17
-55 20 -83 3 -27 10 -84 16 -125 6 -41 13 -113 16 -160 3 -47 10 -89 15 -94
13 -14 12 -853 -1 -861 -6 -3 -10 -46 -10 -95 0 -49 -4 -92 -10 -95 -5 -3 -10
-41 -10 -85 0 -59 -4 -79 -14 -83 -11 -4 -13 -16 -9 -40 3 -23 0 -43 -11 -59
-9 -13 -15 -42 -14 -64 2 -35 -13 -108 -32 -159 -4 -11 -8 -29 -8 -41 0 -18
-53 -210 -104 -379 -44 -148 -179 -470 -280 -670 -192 -380 -373 -647 -705
-1044 -63 -75 -311 -326 -358 -361 -27 -21 -66 -53 -85 -71 -64 -60 -283 -233
-380 -300 -362 -252 -718 -436 -1127 -584 -216 -79 -720 -215 -793 -215 -21 0
-42 -5 -45 -10 -3 -6 -37 -10 -75 -10 -38 0 -72 -5 -75 -10 -3 -6 -42 -10 -86
-10 -44 0 -88 -4 -98 -10 -10 -5 -61 -10 -112 -11 -52 0 -120 -8 -152 -15 -68
-17 -354 -18 -414 -2 -21 6 -87 10 -146 9 -84 -1 -112 2 -123 14 -11 10 -33
14 -79 11 -36 -1 -82 3 -102 11 -21 7 -63 13 -93 13 -31 0 -60 4 -65 9 -6 5
-30 11 -55 14 -100 12 -220 40 -405 94 -27 8 -68 19 -90 23 -22 5 -92 27 -155
49 -670 229 -1250 569 -1724 1009 -196 181 -256 243 -459 477 -57 66 -245 317
-301 403 -261 401 -519 945 -616 1303 -52 187 -105 414 -122 514 -25 151 -30
185 -34 255 -3 41 -10 79 -15 85 -5 5 -9 57 -9 116 0 61 -4 111 -10 114 -6 4
-10 125 -10 331 0 209 4 324 10 324 6 0 10 45 10 115 0 64 4 115 9 115 5 0 12
37 15 83 2 45 9 109 15 142 28 161 30 170 60 305 62 274 177 624 286 864 12
28 40 91 60 139 38 88 169 325 273 492 105 169 326 467 461 623 117 136 395
404 533 515 520 419 1002 684 1603 880 166 55 435 128 485 132 14 1 37 7 52
13 14 6 45 11 67 10 23 0 47 5 54 10 7 6 34 11 58 10 25 0 55 5 67 11 11 6 48
11 81 11 33 0 63 5 66 10 4 6 198 10 550 10 352 0 546 -4 550 -10z"/>
<path d="M4635 9554 c-16 -2 -88 -11 -160 -20 -231 -28 -535 -93 -754 -160
-724 -224 -1365 -613 -1894 -1149 -747 -756 -1200 -1737 -1288 -2784 -18 -218
-7 -780 20 -970 151 -1072 623 -1992 1391 -2713 459 -431 971 -744 1576 -963
349 -127 761 -214 1156 -246 195 -15 720 -7 888 15 813 103 1540 394 2175 870
400 300 742 660 1038 1091 389 569 648 1253 737 1950 41 321 43 797 4 1118
-184 1521 -1119 2837 -2499 3517 -428 211 -855 341 -1383 422 -120 18 -191 21
-557 23 -231 2 -433 1 -450 -1z m2147 -3351 c257 -209 408 -333 472 -388 39
-34 132 -110 206 -170 74 -60 177 -144 228 -187 51 -43 95 -78 99 -78 11 0
102 72 323 256 434 360 771 634 780 634 6 0 10 -170 10 -464 l0 -464 -37 -36
c-21 -19 -94 -81 -163 -136 -340 -277 -321 -259 -305 -284 8 -12 45 -47 83
-77 37 -29 147 -120 245 -202 l179 -148 3 -132 c16 -637 17 -837 4 -837 -8 0
-52 32 -99 71 -118 99 -730 603 -804 663 -34 27 -90 74 -126 104 -36 31 -73
62 -82 70 -15 13 -34 0 -184 -124 -91 -77 -197 -164 -234 -194 -37 -30 -112
-92 -166 -137 -383 -317 -529 -432 -531 -421 -1 7 -4 219 -6 470 l-4 457 125
103 c194 160 386 319 395 328 11 10 -40 57 -293 265 -118 98 -218 185 -222
194 -10 24 -9 941 1 941 4 0 51 -35 103 -77z m-3237 -863 c49 -19 85 -70 85
-122 0 -40 -43 -101 -81 -113 -14 -5 -19 -16 -19 -45 0 -21 -4 -41 -9 -44 -10
-6 -21 26 -21 61 0 12 -8 24 -19 28 -34 10 -91 82 -91 114 0 38 38 92 80 113
41 21 41 21 75 8z m-165 -34 c0 -8 -29 -37 -65 -65 -70 -55 -109 -103 -139
-169 -15 -33 -22 -40 -33 -31 -18 16 -16 33 7 80 30 58 86 117 154 161 65 42
76 45 76 24z m410 -90 c60 -59 77 -90 114 -204 l26 -82 -22 -30 c-12 -17 -23
-30 -24 -30 -1 0 -12 16 -23 36 -19 32 -20 38 -6 48 14 10 14 16 -1 66 -24 84
-56 131 -139 205 -41 37 -75 74 -75 82 0 23 90 -31 150 -91z m-876 -25 c46
-23 106 -84 106 -108 0 -19 -160 -17 -207 2 -41 17 -86 19 -114 5 -21 -12 -26
-40 -6 -40 45 -1 207 -22 239 -32 49 -14 88 -59 88 -100 0 -110 -159 -185
-337 -159 -89 13 -143 41 -178 91 -14 20 -25 39 -25 43 0 14 194 7 220 -8 45
-26 120 -13 120 20 0 17 -14 21 -137 34 -107 12 -178 39 -194 75 -29 62 27
153 109 180 77 24 83 25 178 22 70 -2 103 -8 138 -25z m-1206 -5 c51 -22 89
-65 98 -111 9 -47 0 -74 -36 -113 -16 -18 -30 -36 -30 -40 0 -3 11 -17 24 -31
23 -25 50 -117 37 -125 -10 -7 -157 0 -168 7 -6 4 -16 27 -23 52 -7 25 -21 50
-32 56 -10 5 -58 11 -106 12 l-87 2 -3 -62 -3 -63 -89 0 -90 0 0 221 0 221
233 -4 c192 -4 239 -8 275 -22z m692 -31 l0 -55 -165 0 c-174 0 -172 1 -159
-47 6 -22 10 -23 133 -23 138 0 151 -5 151 -52 l0 -28 -140 0 c-152 0 -159 -3
-146 -55 l6 -25 176 0 175 0 -3 -52 -3 -53 -267 -3 -268 -2 0 225 0 225 255 0
255 0 0 -55z m3395 -9 c46 -20 91 -59 111 -98 8 -15 14 -29 14 -33 0 -3 -37
-5 -82 -5 -69 0 -92 4 -132 25 -56 28 -92 31 -139 12 -41 -18 -57 -37 -64 -80
-11 -70 48 -137 122 -137 15 0 48 11 74 24 36 19 65 25 134 29 48 2 87 -1 87
-5 0 -18 -29 -64 -57 -90 -41 -39 -105 -59 -208 -65 -160 -10 -264 33 -312
127 -61 119 4 262 137 305 63 21 260 15 315 -9z m-1583 -118 c3 -73 8 -141 13
-151 18 -42 102 -60 142 -32 32 22 43 75 43 203 l0 112 91 0 91 0 -4 -152 c-4
-141 -6 -156 -29 -191 -38 -59 -112 -90 -224 -95 -107 -5 -186 13 -235 54 -56
48 -64 75 -68 237 l-4 147 90 0 90 0 4 -132z m976 104 c48 -26 82 -73 82 -115
0 -37 -27 -94 -54 -112 -15 -11 -18 -19 -11 -29 39 -53 47 -70 52 -106 l6 -40
-86 0 c-80 0 -86 1 -92 23 -16 51 -37 85 -61 96 -14 6 -59 11 -100 11 l-76 0
4 -62 3 -63 -92 -3 -93 -3 0 216 0 217 238 -4 c224 -3 239 -4 280 -26z m1314
-12 c2 -23 1 -45 -2 -50 -3 -5 -75 -11 -160 -12 l-155 -3 0 -35 0 -35 131 -3
c127 -2 132 -3 138 -25 12 -46 13 -46 -131 -49 l-138 -3 0 -35 0 -35 173 -3
172 -2 0 -50 0 -50 -265 0 -265 0 0 215 0 215 249 0 249 0 4 -40z m-3048 -85
c21 -25 44 -45 53 -45 8 0 36 20 61 45 25 25 52 45 59 45 8 0 25 -11 38 -25
21 -20 25 -34 25 -88 0 -101 -2 -102 -174 -102 -177 0 -181 2 -181 100 0 53 4
67 24 89 34 36 53 33 95 -19z m-314 -57 c0 -6 8 -20 17 -30 13 -14 14 -21 5
-30 -20 -20 -14 -57 24 -144 35 -81 37 -109 10 -98 -20 8 -73 111 -90 175 -8
30 -17 61 -20 69 -7 19 31 83 44 75 6 -3 10 -11 10 -17z m740 -187 c0 -9 -14
-38 -31 -65 -22 -35 -34 -45 -41 -38 -8 8 -4 31 17 83 25 66 29 70 41 54 8
-11 14 -26 14 -34z m-521 -7 c24 -31 26 -43 9 -79 -10 -22 -18 -25 -59 -25
-44 0 -48 2 -58 31 -14 42 -14 42 10 73 13 17 30 26 49 26 19 0 36 -9 49 -26z
m195 5 c18 -14 26 -30 26 -53 0 -43 -16 -56 -65 -56 -50 0 -65 13 -65 59 0 65
52 91 104 50z m206 -1 c42 -45 14 -108 -49 -108 -21 0 -43 6 -49 13 -57 68 37
160 98 95z m46 -152 c12 -25 14 -41 7 -62 l-10 -29 -89 0 -89 0 -3 57 -3 57
73 4 c40 1 79 4 86 5 7 1 20 -13 28 -32z m-413 -36 l1 -55 -89 0 -90 0 -3 44
c-5 71 -3 72 94 69 l86 -3 1 -55z m207 0 l0 -60 -90 0 -90 0 0 60 0 60 90 0
90 0 0 -60z m-2035 -224 c62 -26 70 -69 24 -140 -17 -27 -28 -55 -24 -64 4
-10 21 15 50 74 35 72 51 94 87 117 35 23 51 28 87 24 80 -9 100 -75 65 -210
-27 -105 -60 -154 -126 -188 -68 -35 -110 -25 -139 33 l-21 40 -26 -25 c-42
-38 -90 -59 -154 -64 -56 -6 -58 -5 -58 18 0 13 5 44 11 69 5 24 19 101 29
169 11 68 24 129 29 134 25 25 118 33 166 13z m803 5 c11 -7 7 -42 -19 -186
-18 -98 -39 -184 -47 -191 -7 -8 -31 -14 -53 -14 l-39 0 -1 43 c0 23 -4 51 -8
62 -7 16 -9 13 -15 -20 -12 -63 -32 -93 -68 -100 -24 -6 -35 -3 -45 11 -10 14
-16 15 -25 6 -32 -32 -65 0 -84 83 -7 29 -7 29 -19 -18 -7 -26 -19 -54 -25
-62 -12 -15 -81 -21 -93 -9 -3 3 2 29 10 57 9 29 26 110 38 180 12 71 28 134
34 140 15 15 139 21 174 8 24 -9 27 -16 27 -55 0 -56 -11 -85 -48 -127 l-29
-34 25 -55 25 -55 18 95 c10 52 24 127 31 165 l13 70 51 3 c58 3 52 13 70
-113 l8 -50 12 60 c23 110 40 133 82 106z m3069 -6 c50 -35 53 -155 7 -256
-50 -107 -146 -171 -219 -143 -49 19 -62 139 -26 236 25 66 80 142 119 162 35
20 92 20 119 1z m840 -27 c-3 -24 -17 -108 -32 -188 -29 -156 -36 -170 -91
-170 -32 0 -33 1 -39 58 -9 82 -11 83 -24 21 -15 -73 -29 -90 -71 -92 -43 -2
-43 -5 -6 183 14 74 25 146 25 160 -1 14 -16 -47 -34 -135 -17 -88 -35 -170
-39 -182 -9 -27 -36 -37 -77 -28 -23 5 -29 11 -24 23 6 14 23 92 80 352 17 77
-31 -77 -61 -196 -20 -77 -39 -145 -42 -151 -4 -6 -36 -15 -71 -19 l-63 -7 6
54 6 54 -15 -40 c-22 -56 -35 -66 -91 -68 l-49 -2 3 60 c2 33 11 121 20 195
l17 135 42 6 c60 8 64 3 53 -66 -16 -100 -3 -80 25 37 5 19 15 29 36 33 45 10
49 1 42 -80 -3 -41 -3 -75 0 -75 3 0 11 34 18 75 9 58 16 76 31 81 27 8 189
-7 182 -17 -3 -5 0 -9 5 -9 6 0 11 7 11 16 0 12 10 14 53 12 l52 -3 9 -67 c9
-63 26 -95 26 -47 0 28 21 100 33 117 5 6 21 12 35 12 23 0 24 -2 19 -42z
m-3670 10 c-37 -158 -59 -280 -51 -287 5 -5 19 -12 30 -15 26 -8 23 -15 54
170 l24 142 51 6 c129 15 147 9 125 -48 -8 -22 -14 -25 -39 -20 -23 5 -32 2
-40 -14 -13 -25 -14 -62 -2 -62 5 0 16 -3 25 -6 11 -4 16 0 16 14 0 12 4 24
10 27 13 8 2 -95 -12 -113 -6 -7 -23 -12 -37 -10 -23 3 -26 -1 -29 -33 -3 -31
0 -37 20 -42 13 -4 28 -1 34 6 7 7 30 74 52 150 22 76 43 141 45 144 3 3 42 7
87 10 l82 6 -6 -59 c-3 -32 -8 -108 -10 -169 l-5 -110 24 130 c38 206 36 200
70 203 16 2 58 1 93 -3 60 -6 63 -8 77 -42 8 -20 16 -45 16 -57 1 -11 5 4 10
34 5 30 15 57 22 62 6 4 88 7 182 6 181 0 215 -8 215 -48 0 -26 6 -25 42 5 52
44 158 57 186 22 30 -38 13 -88 -34 -101 -16 -5 -27 0 -41 17 -17 22 -43 26
-43 6 0 -5 17 -28 39 -52 68 -75 78 -119 39 -177 -51 -74 -123 -97 -193 -61
-26 14 -42 18 -49 11 -6 -6 -25 -10 -42 -10 -32 0 -34 2 -51 63 l-17 62 -13
-55 c-13 -61 -32 -80 -80 -80 -25 0 -33 4 -33 18 0 10 -3 13 -8 6 -4 -6 -29
-14 -57 -18 -27 -4 -61 -9 -75 -11 -48 -9 -54 5 -36 83 9 39 16 74 16 78 0 4
-17 -20 -39 -53 -30 -47 -50 -66 -92 -87 -50 -24 -139 -37 -139 -18 0 4 -23 5
-51 3 l-52 -3 7 41 c8 54 -15 56 -41 4 l-18 -38 -217 -1 c-120 -1 -218 -1
-218 0 0 0 16 84 35 186 19 102 35 188 35 192 0 9 28 15 74 17 35 1 38 -1 33
-21z m1680 -17 c23 -34 23 -34 23 -8 0 31 25 47 74 47 43 0 44 -5 17 -122 -11
-46 -22 -109 -26 -140 -7 -56 -7 -58 16 -58 22 0 27 10 58 118 56 193 54 188
114 196 29 3 65 6 80 6 l29 0 -7 -187 c-4 -104 -12 -194 -18 -201 -6 -8 -27
-12 -56 -10 l-46 3 3 38 c4 51 -20 49 -40 -2 l-16 -40 -121 0 c-91 0 -121 3
-121 13 0 7 5 39 10 72 6 32 12 72 15 88 l5 28 -40 -36 c-22 -20 -48 -36 -58
-36 -15 0 -22 -13 -31 -55 -8 -34 -19 -59 -31 -65 -28 -15 -80 -13 -80 3 0 16
68 356 75 375 3 9 25 12 77 10 70 -3 73 -4 95 -37z m516 -31 l-2 -55 18 55 18
55 47 3 c37 3 46 0 46 -14 0 -9 -27 -75 -59 -148 -33 -72 -64 -150 -70 -172
-11 -39 -13 -42 -58 -48 -25 -3 -48 -5 -50 -3 -1 2 1 37 7 78 5 41 10 124 10
186 0 121 1 123 60 120 l34 -2 -1 -55z m427 41 c0 -10 -13 -35 -29 -55 -29
-37 -38 -65 -62 -209 -14 -85 -32 -109 -85 -111 -47 -1 -46 -12 -13 171 l23
132 -27 21 c-26 20 -35 49 -20 63 3 4 53 7 110 7 94 0 103 -2 103 -19z"/>
<path d="M1392 5101 c-9 -5 -12 -23 -10 -52 l3 -44 45 -3 c147 -11 250 37 178
82 -26 16 -196 30 -216 17z"/>
<path d="M4850 5010 l0 -50 93 0 c101 0 140 13 145 47 6 39 -32 53 -140 53
l-98 0 0 -50z"/>
<path d="M1481 4291 c-12 -8 -12 -12 -2 -25 16 -19 31 -12 31 15 0 21 -7 23
-29 10z"/>
<path d="M1705 4222 c-33 -49 -43 -123 -21 -141 15 -12 21 -10 46 14 36 34 57
92 41 108 -16 16 -14 37 4 31 8 -4 15 -2 15 4 0 11 -23 22 -46 22 -7 0 -25
-17 -39 -38z"/>
<path d="M1450 4125 c0 -40 9 -44 35 -15 15 16 15 22 5 35 -22 27 -40 18 -40
-20z"/>
<path d="M1990 4281 c-14 -27 -13 -41 3 -41 16 0 47 32 47 48 0 19 -38 14 -50
-7z"/>
<path d="M5317 4228 c-54 -71 -58 -164 -6 -151 58 15 104 174 52 181 -14 2
-29 -7 -46 -30z"/>
<path d="M3488 4308 c-14 -14 -18 -35 -18 -88 0 -49 -4 -70 -12 -71 -7 -1 -24
-2 -38 -3 -20 -1 -26 -7 -31 -39 l-6 -37 43 2 42 1 7 46 c3 25 13 79 21 119
17 84 16 95 -8 70z"/>
<path d="M3427 4303 c-2 -4 -7 -25 -11 -46 -7 -36 -6 -38 15 -35 18 2 22 10
23 42 1 36 -15 59 -27 39z"/>
<path d="M3608 4265 c-5 -42 4 -44 31 -6 22 30 19 41 -10 41 -12 0 -18 -10
-21 -35z"/>
<path d="M3157 4183 c-14 -60 -23 -110 -21 -112 16 -17 79 157 70 194 -12 46
-24 26 -49 -82z"/>
<path d="M3688 4198 l-38 -38 26 -57 c24 -55 26 -57 40 -39 8 11 14 26 14 33
0 17 3 17 45 -8 66 -39 89 -2 30 50 -20 17 -45 45 -58 63 l-22 33 -37 -37z"/>
<path d="M2930 4214 c0 -5 -4 -26 -9 -46 -5 -21 -5 -38 -1 -38 10 0 24 79 16
87 -3 4 -6 2 -6 -3z"/>
<path d="M4188 4250 c-4 -58 11 -51 19 9 3 25 2 41 -5 41 -5 0 -12 -22 -14
-50z"/>
<path d="M4556 4195 c-4 -20 -10 -43 -13 -51 -3 -8 -1 -14 5 -14 5 0 12 21 16
47 7 55 1 69 -8 18z"/>
</g>
</svg>
